<svg width="480" height="253" viewBox="0 0 480 253" fill="none" xmlns="http://www.w3.org/2000/svg">
<g clip-path="url(#clip0)">
<rect width="480" height="253" rx="16" fill="#EDF5FF"/>
<g clip-path="url(#clip1)">
<path d="M416.191 207.61H291.588V79.4503C291.588 52.1833 313.717 30 340.917 30H366.862C394.062 30 416.191 52.1833 416.191 79.4503V207.61Z" fill="#F2F2F2"/>
<path d="M390.247 207.61H291.588V79.4503C291.561 69.0022 294.861 58.8182 301.009 50.3809C301.235 50.0713 301.461 49.7657 301.694 49.4634C304.668 45.5539 308.206 42.1109 312.193 39.248C312.418 39.0838 312.644 38.9224 312.874 38.761C316.21 36.4467 319.819 34.5548 323.618 33.1284C323.843 33.0427 324.073 32.9568 324.303 32.8744C327.739 31.6452 331.301 30.8032 334.923 30.3639C335.147 30.3332 335.378 30.3091 335.608 30.2851C339.138 29.9068 342.697 29.9068 346.227 30.2851C346.457 30.3091 346.687 30.3332 346.915 30.3643C350.535 30.8036 354.096 31.6455 357.532 32.8744C357.761 32.9568 357.991 33.0427 358.217 33.1286C361.97 34.537 365.536 36.4006 368.836 38.6779C369.066 38.8358 369.295 38.9972 369.521 39.1587C371.756 40.7577 373.855 42.5392 375.797 44.4849C377.354 46.0456 378.806 47.7091 380.141 49.4644C380.373 49.7657 380.599 50.0713 380.826 50.3805C386.973 58.8178 390.274 69.002 390.247 79.4503V207.61Z" fill="#CCCCCC"/>
<path d="M382.224 150.289C385.241 150.289 387.686 147.838 387.686 144.814C387.686 141.79 385.241 139.338 382.224 139.338C379.207 139.338 376.762 141.79 376.762 144.814C376.762 147.838 379.207 150.289 382.224 150.289Z" fill="#2945FF"/>
<path d="M405.984 203.772H401.799L399.807 187.589L405.984 187.589L405.984 203.772Z" fill="#FFB8B8"/>
<path d="M398.809 202.573H406.88V207.667H393.727C393.727 206.998 393.858 206.336 394.114 205.718C394.369 205.1 394.743 204.538 395.215 204.065C395.687 203.592 396.248 203.217 396.864 202.961C397.481 202.705 398.142 202.573 398.809 202.573Z" fill="#2F2E41"/>
<path d="M426.808 203.772H422.623L420.631 187.589L426.809 187.589L426.808 203.772Z" fill="#FFB8B8"/>
<path d="M419.633 202.573H427.705V207.667H414.551C414.551 206.998 414.682 206.336 414.938 205.718C415.193 205.1 415.568 204.538 416.04 204.065C416.511 203.592 417.072 203.217 417.688 202.961C418.305 202.705 418.966 202.573 419.633 202.573Z" fill="#2F2E41"/>
<path d="M384.989 145.898C384.687 145.454 384.487 144.948 384.402 144.418C384.317 143.887 384.349 143.344 384.496 142.827C384.643 142.31 384.901 141.832 385.252 141.426C385.603 141.02 386.039 140.696 386.528 140.477L400.756 101.167L407.756 104.997L391.512 142.563C391.824 143.411 391.815 144.346 391.487 145.189C391.158 146.031 390.532 146.724 389.728 147.135C388.924 147.546 387.997 147.647 387.124 147.419C386.25 147.192 385.491 146.65 384.989 145.898Z" fill="#FFB8B8"/>
<path d="M424.67 153.285C424.205 153.017 423.804 152.651 423.495 152.212C423.187 151.772 422.978 151.27 422.884 150.741C422.79 150.212 422.812 149.669 422.95 149.149C423.088 148.63 423.338 148.147 423.682 147.735L419.275 106.153L427.242 106.518L429.074 147.419C429.726 148.045 430.127 148.889 430.2 149.791C430.273 150.692 430.013 151.59 429.471 152.313C428.928 153.036 428.139 153.534 427.255 153.713C426.37 153.892 425.45 153.74 424.67 153.285Z" fill="#FFB8B8"/>
<path d="M411.96 93.8862C416.591 93.8862 420.345 90.1231 420.345 85.481C420.345 80.8389 416.591 77.0758 411.96 77.0758C407.33 77.0758 403.576 80.8389 403.576 85.481C403.576 90.1231 407.33 93.8862 411.96 93.8862Z" fill="#FFB8B8"/>
<path d="M424.616 143.828H399.338L399.369 143.63C399.414 143.336 403.874 114.05 400.585 104.469C400.255 103.527 400.284 102.496 400.666 101.575C401.049 100.654 401.758 99.9066 402.657 99.4778H402.657C407.358 97.2584 416.383 94.5255 424 101.158C425.121 102.15 425.996 103.39 426.556 104.779C427.117 106.169 427.347 107.67 427.229 109.164L424.616 143.828Z" fill="#2945FF"/>
<path d="M404.193 118.378L392.813 116.063L398.147 103.391C398.467 102.164 399.258 101.113 400.349 100.47C401.44 99.8273 402.74 99.6443 403.966 99.9614C405.191 100.278 406.24 101.07 406.884 102.162C407.528 103.253 407.714 104.557 407.401 105.786L404.193 118.378Z" fill="#2945FF"/>
<path d="M418.769 122.675L418.085 106.953C417.566 103.998 419.254 101.204 421.849 100.747C424.446 100.292 426.981 102.342 427.502 105.319L430.074 120.01L418.769 122.675Z" fill="#2945FF"/>
<path d="M423.776 141.945C427.843 157.474 428.287 177.217 427.189 198.753L421.727 198.069L411.827 157.003L406.365 198.753L400.22 198.411C398.385 175.815 396.597 156.416 399.538 143.656L423.776 141.945Z" fill="#2F2E41"/>
<path d="M417.485 91.9768C415.921 93.6471 413.016 92.7504 412.812 90.4686C412.796 90.2914 412.797 90.1131 412.815 89.9362C412.921 88.9254 413.503 88.0078 413.364 86.9405C413.332 86.6749 413.233 86.4218 413.077 86.2052C411.83 84.5319 408.904 86.9535 407.728 85.4388C407.007 84.5101 407.855 83.0477 407.301 82.0096C406.571 80.6396 404.407 81.3154 403.05 80.5651C401.54 79.7303 401.63 77.4081 402.624 75.9956C403.836 74.273 405.961 73.3538 408.06 73.2214C410.159 73.0889 412.243 73.6576 414.202 74.423C416.428 75.2927 418.636 76.4947 420.006 78.4569C421.672 80.8433 421.832 84.0515 420.999 86.8418C420.492 88.5392 418.762 90.6128 417.485 91.9768Z" fill="#2F2E41"/>
<path d="M489.752 207.831H237.714C237.606 207.83 237.503 207.787 237.427 207.711C237.351 207.634 237.309 207.531 237.309 207.423C237.309 207.315 237.351 207.212 237.427 207.135C237.503 207.059 237.606 207.016 237.714 207.016H489.752C489.86 207.016 489.963 207.059 490.039 207.135C490.115 207.212 490.158 207.315 490.158 207.423C490.158 207.531 490.115 207.634 490.039 207.711C489.963 207.787 489.86 207.83 489.752 207.831Z" fill="#3F3D56"/>
<path d="M363.107 170.48H318.728C318.143 170.483 317.581 170.254 317.165 169.842C316.749 169.43 316.513 168.87 316.509 168.284V68.9837C316.513 68.3978 316.749 67.8376 317.165 67.426C317.581 67.0144 318.143 66.7851 318.728 66.7882H363.107C363.691 66.7851 364.253 67.0144 364.669 67.426C365.085 67.8376 365.321 68.3978 365.326 68.9837V168.284C365.321 168.87 365.085 169.43 364.669 169.842C364.253 170.254 363.691 170.483 363.107 170.48Z" fill="white"/>
<path d="M365.326 98.9189H316.509V99.6033H365.326V98.9189Z" fill="#CCCCCC"/>
<path d="M365.497 137.969H316.679V138.654H365.497V137.969Z" fill="#CCCCCC"/>
<path d="M332.553 66.7883H331.871V170.822H332.553V66.7883Z" fill="#CCCCCC"/>
<path d="M349.622 66.7883H348.94V170.822H349.622V66.7883Z" fill="#CCCCCC"/>
</g>
<path d="M70.6391 117H91.8352C103.827 117 109.707 110.889 109.707 102.733C109.707 94.8068 104.082 90.1534 98.5085 89.8722V89.3608C103.622 88.1591 107.662 84.5795 107.662 78.2131C107.662 70.4148 102.037 64.6364 90.6846 64.6364H70.6391V117ZM80.1249 109.074V93.733H90.5823C96.4374 93.733 100.068 97.3125 100.068 101.991C100.068 106.159 97.2045 109.074 90.3266 109.074H80.1249ZM80.1249 86.9062V72.4602H89.713C95.2869 72.4602 98.1761 75.4006 98.1761 79.4403C98.1761 84.0426 94.4431 86.9062 89.5085 86.9062H80.1249ZM126.692 117.793C132.853 117.793 136.535 114.903 138.223 111.605H138.53V117H147.427V90.7159C147.427 80.3352 138.964 77.2159 131.473 77.2159C123.214 77.2159 116.873 80.8977 114.828 88.0568L123.47 89.2841C124.39 86.5994 126.998 84.2983 131.524 84.2983C135.819 84.2983 138.172 86.4972 138.172 90.358V90.5114C138.172 93.1705 135.385 93.2983 128.456 94.0398C120.836 94.858 113.549 97.1335 113.549 105.98C113.549 113.702 119.2 117.793 126.692 117.793ZM129.095 110.991C125.234 110.991 122.473 109.227 122.473 105.827C122.473 102.273 125.567 100.79 129.709 100.202C132.138 99.8693 136.995 99.2557 138.197 98.2841V102.912C138.197 107.284 134.669 110.991 129.095 110.991ZM163.83 93.9886C163.83 88.3125 167.256 85.0398 172.139 85.0398C176.921 85.0398 179.784 88.1847 179.784 93.4261V117H189.04V91.9943C189.066 82.5852 183.696 77.2159 175.591 77.2159C169.71 77.2159 165.671 80.0284 163.881 84.4006H163.421V77.7273H154.574V117H163.83V93.9886ZM196.289 117H205.545V103.807L208.92 100.202L220.937 117H232.008L215.9 94.679L231.113 77.7273H220.298L206.184 93.5028H205.545V64.6364H196.289V117Z" fill="black"/>
</g>
<defs>
<clipPath id="clip0">
<rect width="480" height="253" rx="16" fill="white"/>
</clipPath>
<clipPath id="clip1">
<rect width="297" height="178" fill="white" transform="translate(203 30)"/>
</clipPath>
</defs>
</svg>
