<svg width="209" height="52" viewBox="0 0 209 52" fill="none" xmlns="http://www.w3.org/2000/svg">
<path d="M40.532 3.4V51H36.384L5.784 12.376V51H0.752001V3.4H4.9L35.568 42.024V3.4H40.532ZM67.5604 14.96C72.2297 14.96 75.8111 16.1387 78.3044 18.496C80.7977 20.808 82.0444 24.2533 82.0444 28.832V51H77.4204V45.424C76.3324 47.2827 74.7231 48.7333 72.5924 49.776C70.5071 50.8187 68.0137 51.34 65.1124 51.34C61.1231 51.34 57.9497 50.388 55.5924 48.484C53.2351 46.58 52.0564 44.064 52.0564 40.936C52.0564 37.8987 53.1444 35.4507 55.3204 33.592C57.5417 31.7333 61.0551 30.804 65.8604 30.804H77.2164V28.628C77.2164 25.5453 76.3551 23.2107 74.6324 21.624C72.9097 19.992 70.3937 19.176 67.0844 19.176C64.8177 19.176 62.6417 19.5613 60.5564 20.332C58.4711 21.0573 56.6804 22.0773 55.1844 23.392L53.0084 19.788C54.8217 18.2467 56.9977 17.068 59.5364 16.252C62.0751 15.3907 64.7497 14.96 67.5604 14.96ZM65.8604 47.532C68.5804 47.532 70.9151 46.92 72.8644 45.696C74.8137 44.4267 76.2644 42.6133 77.2164 40.256V34.408H65.9964C59.8764 34.408 56.8164 36.5387 56.8164 40.8C56.8164 42.8853 57.6097 44.54 59.1964 45.764C60.7831 46.9427 63.0044 47.532 65.8604 47.532ZM108.418 33.048L99.9858 40.8V51H95.1578V0.543997H99.9858V34.748L121.338 15.232H127.322L112.022 29.852L128.75 51H122.834L108.418 33.048ZM147.846 14.96C152.515 14.96 156.096 16.1387 158.59 18.496C161.083 20.808 162.33 24.2533 162.33 28.832V51H157.706V45.424C156.618 47.2827 155.008 48.7333 152.878 49.776C150.792 50.8187 148.299 51.34 145.398 51.34C141.408 51.34 138.235 50.388 135.878 48.484C133.52 46.58 132.342 44.064 132.342 40.936C132.342 37.8987 133.43 35.4507 135.606 33.592C137.827 31.7333 141.34 30.804 146.146 30.804H157.502V28.628C157.502 25.5453 156.64 23.2107 154.918 21.624C153.195 19.992 150.679 19.176 147.37 19.176C145.103 19.176 142.927 19.5613 140.842 20.332C138.756 21.0573 136.966 22.0773 135.47 23.392L133.294 19.788C135.107 18.2467 137.283 17.068 139.822 16.252C142.36 15.3907 145.035 14.96 147.846 14.96ZM146.146 47.532C148.866 47.532 151.2 46.92 153.15 45.696C155.099 44.4267 156.55 42.6133 157.502 40.256V34.408H146.282C140.162 34.408 137.102 36.5387 137.102 40.8C137.102 42.8853 137.895 44.54 139.482 45.764C141.068 46.9427 143.29 47.532 146.146 47.532ZM208.216 0.543997V51H203.592V43.928C202.141 46.3307 200.214 48.1667 197.812 49.436C195.454 50.7053 192.78 51.34 189.788 51.34C186.433 51.34 183.396 50.5693 180.676 49.028C177.956 47.4867 175.825 45.3333 174.284 42.568C172.742 39.8027 171.972 36.652 171.972 33.116C171.972 29.58 172.742 26.4293 174.284 23.664C175.825 20.8987 177.956 18.768 180.676 17.272C183.396 15.7307 186.433 14.96 189.788 14.96C192.689 14.96 195.296 15.572 197.608 16.796C199.965 17.9747 201.892 19.72 203.388 22.032V0.543997H208.216ZM190.196 47.056C192.689 47.056 194.933 46.4893 196.928 45.356C198.968 44.1773 200.554 42.5227 201.688 40.392C202.866 38.2613 203.456 35.836 203.456 33.116C203.456 30.396 202.866 27.9707 201.688 25.84C200.554 23.7093 198.968 22.0773 196.928 20.944C194.933 19.7653 192.689 19.176 190.196 19.176C187.657 19.176 185.368 19.7653 183.328 20.944C181.333 22.0773 179.746 23.7093 178.568 25.84C177.434 27.9707 176.868 30.396 176.868 33.116C176.868 35.836 177.434 38.2613 178.568 40.392C179.746 42.5227 181.333 44.1773 183.328 45.356C185.368 46.4893 187.657 47.056 190.196 47.056Z" fill="#4072E3"/>
</svg>
