<svg width="92" height="24" viewBox="0 0 92 24" fill="none" xmlns="http://www.w3.org/2000/svg">
<path d="M17.97 2V23H16.14L2.64 5.96V23H0.42V2H2.25L15.78 19.04V2H17.97ZM29.8943 7.1C31.9543 7.1 33.5343 7.62 34.6343 8.66C35.7343 9.68 36.2843 11.2 36.2843 13.22V23H34.2443V20.54C33.7643 21.36 33.0543 22 32.1143 22.46C31.1943 22.92 30.0943 23.15 28.8143 23.15C27.0543 23.15 25.6543 22.73 24.6143 21.89C23.5743 21.05 23.0543 19.94 23.0543 18.56C23.0543 17.22 23.5343 16.14 24.4943 15.32C25.4743 14.5 27.0243 14.09 29.1443 14.09H34.1543V13.13C34.1543 11.77 33.7743 10.74 33.0143 10.04C32.2543 9.32 31.1443 8.96 29.6843 8.96C28.6843 8.96 27.7243 9.13 26.8043 9.47C25.8843 9.79 25.0943 10.24 24.4343 10.82L23.4743 9.23C24.2743 8.55 25.2343 8.03 26.3543 7.67C27.4743 7.29 28.6543 7.1 29.8943 7.1ZM29.1443 21.47C30.3443 21.47 31.3743 21.2 32.2343 20.66C33.0943 20.1 33.7343 19.3 34.1543 18.26V15.68H29.2043C26.5043 15.68 25.1543 16.62 25.1543 18.5C25.1543 19.42 25.5043 20.15 26.2043 20.69C26.9043 21.21 27.8843 21.47 29.1443 21.47ZM47.9196 15.08L44.1996 18.5V23H42.0696V0.739999H44.1996V15.83L53.6196 7.22H56.2596L49.5096 13.67L56.8896 23H54.2796L47.9196 15.08ZM65.3142 7.1C67.3742 7.1 68.9542 7.62 70.0542 8.66C71.1542 9.68 71.7042 11.2 71.7042 13.22V23H69.6642V20.54C69.1842 21.36 68.4742 22 67.5342 22.46C66.6142 22.92 65.5142 23.15 64.2342 23.15C62.4742 23.15 61.0742 22.73 60.0342 21.89C58.9942 21.05 58.4742 19.94 58.4742 18.56C58.4742 17.22 58.9542 16.14 59.9142 15.32C60.8942 14.5 62.4442 14.09 64.5642 14.09H69.5742V13.13C69.5742 11.77 69.1942 10.74 68.4342 10.04C67.6742 9.32 66.5642 8.96 65.1042 8.96C64.1042 8.96 63.1442 9.13 62.2242 9.47C61.3042 9.79 60.5142 10.24 59.8542 10.82L58.8942 9.23C59.6942 8.55 60.6542 8.03 61.7742 7.67C62.8942 7.29 64.0742 7.1 65.3142 7.1ZM64.5642 21.47C65.7642 21.47 66.7942 21.2 67.6542 20.66C68.5142 20.1 69.1542 19.3 69.5742 18.26V15.68H64.6242C61.9242 15.68 60.5742 16.62 60.5742 18.5C60.5742 19.42 60.9242 20.15 61.6242 20.69C62.3242 21.21 63.3042 21.47 64.5642 21.47ZM91.9481 0.739999V23H89.9081V19.88C89.2681 20.94 88.4181 21.75 87.3581 22.31C86.3181 22.87 85.1381 23.15 83.8181 23.15C82.3381 23.15 80.9981 22.81 79.7981 22.13C78.5981 21.45 77.6581 20.5 76.9781 19.28C76.2981 18.06 75.9581 16.67 75.9581 15.11C75.9581 13.55 76.2981 12.16 76.9781 10.94C77.6581 9.72 78.5981 8.78 79.7981 8.12C80.9981 7.44 82.3381 7.1 83.8181 7.1C85.0981 7.1 86.2481 7.37 87.2681 7.91C88.3081 8.43 89.1581 9.2 89.8181 10.22V0.739999H91.9481ZM83.9981 21.26C85.0981 21.26 86.0881 21.01 86.9681 20.51C87.8681 19.99 88.5681 19.26 89.0681 18.32C89.5881 17.38 89.8481 16.31 89.8481 15.11C89.8481 13.91 89.5881 12.84 89.0681 11.9C88.5681 10.96 87.8681 10.24 86.9681 9.74C86.0881 9.22 85.0981 8.96 83.9981 8.96C82.8781 8.96 81.8681 9.22 80.9681 9.74C80.0881 10.24 79.3881 10.96 78.8681 11.9C78.3681 12.84 78.1181 13.91 78.1181 15.11C78.1181 16.31 78.3681 17.38 78.8681 18.32C79.3881 19.26 80.0881 19.99 80.9681 20.51C81.8681 21.01 82.8781 21.26 83.9981 21.26Z" fill="#43425D"/>
</svg>
