<svg width="22" height="23" viewBox="0 0 22 23" fill="none" xmlns="http://www.w3.org/2000/svg">
<path d="M6.99999 21H11C10.9984 21.5299 10.7872 22.0377 10.4125 22.4125C10.0377 22.7872 9.52994 22.9984 8.99999 23C8.47005 22.9984 7.96225 22.7872 7.58752 22.4125C7.21279 22.0377 7.00157 21.5299 6.99999 21V21ZM1.99999 20C1.86658 20.008 1.73298 19.9877 1.60802 19.9402C1.48306 19.8928 1.36952 19.8194 1.27502 19.7249C1.18051 19.6304 1.10722 19.5169 1.05981 19.392C1.01239 19.267 0.991972 19.1334 0.999991 19C0.991972 18.8666 1.01239 18.733 1.05981 18.608C1.10722 18.4831 1.18051 18.3696 1.27502 18.2751C1.36952 18.1806 1.48306 18.1072 1.60802 18.0598C1.73298 18.0124 1.86658 17.992 1.99999 18H2.49999C2.93594 17.624 3.29293 17.1652 3.55041 16.6502C3.80788 16.1353 3.96073 15.5744 3.99999 15V12C3.99358 11.3416 4.11854 10.6885 4.36755 10.079C4.61655 9.46949 4.98461 8.91575 5.45019 8.45017C5.91576 7.9846 6.46945 7.61654 7.07897 7.36754C7.6885 7.11854 8.3416 6.99359 8.99999 7C9.65842 6.99345 10.3115 7.11831 10.9211 7.36726C11.5307 7.61622 12.0846 7.98426 12.5502 8.44987C13.0158 8.91547 13.3837 9.46928 13.6327 10.0789C13.8816 10.6885 14.0065 11.3416 14 12V15C14.0391 15.5744 14.1918 16.1354 14.4493 16.6503C14.7068 17.1653 15.0639 17.6241 15.5 18H16C16.1334 17.992 16.267 18.0124 16.392 18.0598C16.5169 18.1072 16.6305 18.1806 16.725 18.2751C16.8195 18.3696 16.8928 18.4831 16.9402 18.608C16.9876 18.733 17.008 18.8666 17 19C17.008 19.1334 16.9876 19.267 16.9402 19.392C16.8928 19.5169 16.8195 19.6304 16.725 19.7249C16.6305 19.8194 16.5169 19.8928 16.392 19.9402C16.267 19.9877 16.1334 20.008 16 20H1.99999Z" fill="#BCBCCB"/>
<path d="M16 10C18.2091 10 20 8.20914 20 6C20 3.79086 18.2091 2 16 2C13.7909 2 12 3.79086 12 6C12 8.20914 13.7909 10 16 10Z" fill="#FF756A"/>
<path d="M16 11C18.7614 11 21 8.76142 21 6C21 3.23858 18.7614 1 16 1C13.2386 1 11 3.23858 11 6C11 8.76142 13.2386 11 16 11Z" stroke="white" stroke-width="2"/>
</svg>
