<svg width="16" height="16" viewBox="0 0 16 16" fill="none" xmlns="http://www.w3.org/2000/svg">
<path d="M8 0C6.41775 0 4.87103 0.469192 3.55544 1.34824C2.23985 2.22729 1.21447 3.47672 0.608967 4.93853C0.00346625 6.40034 -0.15496 8.00887 0.153721 9.56072C0.462403 11.1126 1.22433 12.538 2.34315 13.6569C3.46197 14.7757 4.88743 15.5376 6.43928 15.8463C7.99113 16.155 9.59966 15.9965 11.0615 15.391C12.5233 14.7855 13.7727 13.7602 14.6518 12.4446C15.5308 11.129 16 9.58225 16 8C15.9937 5.88022 15.1488 3.84906 13.6499 2.35014C12.1509 0.851219 10.1198 0.00633091 8 0V0ZM8 10C7.60444 10 7.21776 9.8827 6.88886 9.66294C6.55997 9.44318 6.30362 9.13082 6.15224 8.76537C6.00087 8.39991 5.96126 7.99778 6.03843 7.60982C6.1156 7.22186 6.30609 6.86549 6.58579 6.58579C6.8655 6.30608 7.22186 6.1156 7.60982 6.03843C7.99779 5.96126 8.39992 6.00087 8.76537 6.15224C9.13082 6.30362 9.44318 6.55996 9.66294 6.88886C9.88271 7.21776 10 7.60444 10 8C9.99842 8.52995 9.7872 9.03773 9.41247 9.41247C9.03774 9.7872 8.52995 9.99842 8 10V10ZM8 2C8.90138 1.99646 9.79133 2.20183 10.6 2.6L9.044 4.156C8.36306 3.94899 7.63595 3.94899 6.955 4.156L5.4 2.6C6.20868 2.20183 7.09862 1.99646 8 2V2ZM2 8C1.99646 7.09862 2.20183 6.20868 2.6 5.4L4.156 6.956C3.94899 7.63695 3.94899 8.36405 4.156 9.045L2.6 10.6C2.20183 9.79132 1.99646 8.90138 2 8V8ZM8 14C7.09862 14.0035 6.20868 13.7982 5.4 13.4L6.956 11.844C7.63695 12.051 8.36406 12.051 9.045 11.844L10.6 13.4C9.79133 13.7982 8.90138 14.0035 8 14V14ZM13.4 10.6L11.844 9.044C12.051 8.36305 12.051 7.63595 11.844 6.955L13.4 5.4C13.7948 6.20986 14 7.09901 14 8C14 8.90099 13.7948 9.79014 13.4 10.6V10.6Z" fill="#BCBCCB"/>
</svg>
