<svg width="480" height="253" viewBox="0 0 480 253" fill="none" xmlns="http://www.w3.org/2000/svg">
<g clip-path="url(#clip0)">
<rect width="480" height="253" rx="16" fill="#F5EDFF"/>
<g clip-path="url(#clip1)">
<path d="M309.719 129.211C309.719 129.211 316.307 129.65 317.478 128.772C318.649 127.893 323.626 129.943 324.065 131.114C324.504 132.285 317.038 132.431 315.867 132.431C314.696 132.431 309.134 134.188 309.134 134.188L309.719 129.211Z" fill="#FBBEBE"/>
<path d="M326.423 114.509C324.142 115.1 322.019 116.183 320.202 117.682C318.385 119.181 316.918 121.06 315.905 123.187C314.892 125.313 314.357 127.636 314.338 129.992C314.319 132.347 314.816 134.678 315.794 136.821L330.469 130.126L326.423 114.509Z" fill="#2945FF"/>
<path d="M333.933 132.624L319.257 139.32C320.532 142.114 322.577 144.486 325.153 146.157C327.73 147.829 330.729 148.73 333.8 148.756C336.871 148.781 339.885 147.929 342.489 146.301C345.092 144.672 347.177 142.335 348.497 139.562C349.818 136.79 350.32 133.698 349.944 130.65C349.569 127.602 348.331 124.725 346.376 122.356C344.422 119.987 341.832 118.226 338.911 117.279C335.989 116.331 332.859 116.237 329.886 117.008L333.933 132.624Z" fill="#2945FF"/>
<path d="M308.98 145.614L306.645 167.761C306.645 167.761 305.913 176.545 303.718 178.448C303.718 178.448 303.718 181.229 302.986 182.107L301.961 193.672C301.961 193.672 303.425 197.917 303.279 198.649C303.132 199.381 303.864 201.723 303.718 202.016C303.571 202.309 296.691 202.016 296.691 202.016L298.155 178.448L302.693 145.657L308.98 145.614Z" fill="#3C354C"/>
<path opacity="0.1" d="M308.98 145.614L306.645 167.761C306.645 167.761 305.913 176.545 303.718 178.448C303.718 178.448 303.718 181.229 302.986 182.107L301.961 193.672C301.961 193.672 303.425 197.917 303.279 198.649C303.132 199.381 303.864 201.723 303.718 202.016C303.571 202.309 296.691 202.016 296.691 202.016L298.155 178.448L302.693 145.657L308.98 145.614Z" fill="black"/>
<path d="M258 209.858H360.115" stroke="#3F3D56" stroke-miterlimit="10"/>
<path d="M358.121 192.616C358.121 192.616 418.22 157.58 495.694 192.616" stroke="#3F3D56" stroke-miterlimit="10"/>
<path d="M370.213 187.116C367.763 186.611 365.563 185.277 363.982 183.338C362.402 181.399 361.539 178.974 361.539 176.473V29.0067C361.539 27.58 361.82 26.1673 362.366 24.8491C362.912 23.531 363.712 22.3334 364.721 21.3245C365.73 20.3157 366.927 19.5154 368.245 18.9694C369.563 18.4235 370.976 18.1425 372.403 18.1425H481.412C482.839 18.1425 484.252 18.4235 485.57 18.9694C486.888 19.5154 488.085 20.3157 489.094 21.3245C490.103 22.3334 490.903 23.531 491.449 24.8491C491.995 26.1673 492.276 27.58 492.276 29.0067V176.473C492.276 179.152 491.287 181.736 489.497 183.73C487.708 185.723 485.246 186.986 482.583 187.275" stroke="#3F3D56" stroke-miterlimit="10"/>
<path d="M484.443 35.6516H368.232V169.828H484.443V35.6516Z" stroke="#3F3D56" stroke-miterlimit="10"/>
<path d="M426.907 29.6784C428.481 29.6784 429.756 28.4031 429.756 26.83C429.756 25.2568 428.481 23.9816 426.907 23.9816C425.334 23.9816 424.059 25.2568 424.059 26.83C424.059 28.4031 425.334 29.6784 426.907 29.6784Z" stroke="#3F3D56" stroke-miterlimit="10"/>
<path d="M420.796 177.116C421.114 175.723 421.898 174.479 423.019 173.593C424.14 172.706 425.53 172.229 426.959 172.241C428.389 172.253 429.771 172.752 430.877 173.658C431.983 174.563 432.747 175.819 433.041 177.218" stroke="#3F3D56" stroke-miterlimit="10"/>
<path d="M355.238 45.3324C354.024 45.401 352.853 45.8064 351.857 46.5033C350.86 47.2002 350.077 48.1609 349.596 49.2777C348.185 52.6883 350.002 56.6946 352.729 59.1817C355.456 61.6687 358.959 63.0903 362.142 64.9589C366.417 67.4687 370.259 70.9527 372.398 75.425C374.537 79.8972 374.765 85.4371 372.25 89.7096C369.916 93.6753 365.673 96.0487 361.625 98.2376" stroke="#3F3D56" stroke-miterlimit="10"/>
<path d="M358.833 48.0505C361.586 48.0505 363.817 46.9665 363.817 45.6294C363.817 44.2922 361.586 43.2083 358.833 43.2083C356.08 43.2083 353.848 44.2922 353.848 45.6294C353.848 46.9665 356.08 48.0505 358.833 48.0505Z" fill="#57B894"/>
<path d="M362.82 64.0016C365.573 64.0016 367.805 62.9176 367.805 61.5804C367.805 60.2433 365.573 59.1593 362.82 59.1593C360.068 59.1593 357.836 60.2433 357.836 61.5804C357.836 62.9176 360.068 64.0016 362.82 64.0016Z" fill="#57B894"/>
<path d="M353.706 66.5652C356.459 66.5652 358.69 65.4812 358.69 64.144C358.69 62.8069 356.459 61.7229 353.706 61.7229C350.953 61.7229 348.721 62.8069 348.721 64.144C348.721 65.4812 350.953 66.5652 353.706 66.5652Z" fill="#57B894"/>
<path d="M367.947 79.9526C370.7 79.9526 372.932 78.8686 372.932 77.5315C372.932 76.1943 370.7 75.1104 367.947 75.1104C365.195 75.1104 362.963 76.1943 362.963 77.5315C362.963 78.8686 365.195 79.9526 367.947 79.9526Z" fill="#57B894"/>
<path d="M377.917 79.9526C380.669 79.9526 382.901 78.8686 382.901 77.5315C382.901 76.1943 380.669 75.1104 377.917 75.1104C375.164 75.1104 372.932 76.1943 372.932 77.5315C372.932 78.8686 375.164 79.9526 377.917 79.9526Z" fill="#57B894"/>
<path d="M483.249 178.573C485.343 178.573 487.04 177.749 487.04 176.732C487.04 175.715 485.343 174.891 483.249 174.891C481.156 174.891 479.459 175.715 479.459 176.732C479.459 177.749 481.156 178.573 483.249 178.573Z" fill="#57B894"/>
<path d="M387.743 63.8683V128.242H463.223" stroke="#3F3D56" stroke-miterlimit="10"/>
<path d="M403.694 106.879H397.427V123.4H403.694V106.879Z" fill="#2945FF"/>
<path d="M416.511 101.182H410.245V123.4H416.511V101.182Z" fill="#2945FF"/>
<path d="M429.329 94.3461H423.062V123.4H429.329V94.3461Z" fill="#2945FF"/>
<path d="M442.146 82.098H435.88V123.4H442.146V82.098Z" fill="#2945FF"/>
<path d="M454.963 72.4135H448.697V123.4H454.963V72.4135Z" fill="#2945FF"/>
<path d="M401.7 104.885H395.434V121.406H401.7V104.885Z" stroke="#3F3D56" stroke-miterlimit="10"/>
<path d="M414.517 99.1884H408.251V121.406H414.517V99.1884Z" stroke="#3F3D56" stroke-miterlimit="10"/>
<path d="M427.335 92.3522H421.068V121.406H427.335V92.3522Z" stroke="#3F3D56" stroke-miterlimit="10"/>
<path d="M440.152 80.1041H433.886V121.406H440.152V80.1041Z" stroke="#3F3D56" stroke-miterlimit="10"/>
<path d="M452.97 70.4196H446.703V121.406H452.97V70.4196Z" stroke="#3F3D56" stroke-miterlimit="10"/>
<path d="M308.475 95.6151C312.517 95.6151 315.794 93.0591 315.794 89.9061C315.794 86.7531 312.517 84.197 308.475 84.197C304.433 84.197 301.156 86.7531 301.156 89.9061C301.156 93.0591 304.433 95.6151 308.475 95.6151Z" fill="#3F3D56"/>
<path d="M296.155 200.819C296.155 200.819 293.085 208.56 294.687 209.495C296.289 210.429 313.106 209.762 313.106 209.762C313.106 209.762 315.909 208.026 312.706 206.825C312.706 206.825 310.036 206.692 308.301 205.624C306.566 204.556 304.564 202.554 304.564 202.554C304.564 202.554 304.431 199.617 303.363 200.285C303.043 200.495 302.771 200.77 302.564 201.092C302.358 201.414 302.22 201.775 302.161 202.153L296.155 200.819Z" fill="#3F3D56"/>
<path opacity="0.1" d="M296.155 200.819C296.155 200.819 293.085 208.56 294.687 209.495C296.289 210.429 313.106 209.762 313.106 209.762C313.106 209.762 315.909 208.026 312.706 206.825C312.706 206.825 310.036 206.692 308.301 205.624C306.566 204.556 304.564 202.554 304.564 202.554C304.564 202.554 304.431 199.617 303.363 200.285C303.043 200.495 302.771 200.77 302.564 201.092C302.358 201.414 302.22 201.775 302.161 202.153L296.155 200.819Z" fill="black"/>
<path d="M291.422 199.769C291.422 199.769 288.055 208.259 289.811 209.284C291.568 210.309 310.012 209.577 310.012 209.577C310.012 209.577 313.086 207.674 309.573 206.356C309.573 206.356 306.645 206.21 304.742 205.039C302.839 203.868 300.644 201.672 300.644 201.672C300.644 201.672 300.497 198.451 299.326 199.183C298.976 199.414 298.678 199.716 298.451 200.069C298.224 200.422 298.073 200.818 298.009 201.233L291.422 199.769Z" fill="#3F3D56"/>
<path d="M305.035 145.313C305.035 145.313 303.425 160.391 302.693 163.612C302.233 165.732 301.939 167.886 301.815 170.053C301.815 170.053 301.668 174.737 300.351 176.054C299.966 176.436 299.663 176.893 299.461 177.397C299.26 177.9 299.164 178.44 299.18 178.982C299.18 178.982 297.862 193.767 298.594 195.524C299.326 197.28 300.32 199.563 299.588 200.734C298.856 201.905 290.543 201.086 290.543 200.208C290.543 199.33 290.543 198.598 290.104 198.159C289.665 197.72 290.104 194.938 290.104 194.938C290.104 194.938 288.348 181.91 289.958 178.104C291.568 174.298 292.3 163.904 292.3 163.904C292.3 163.904 291.129 152.047 289.665 150.144C288.201 148.241 289.958 141.507 289.958 141.507L305.035 145.313Z" fill="#3C354C"/>
<path d="M300.914 98.4902C301.084 98.8779 301.491 99.0937 301.862 99.298C304.011 100.482 305.81 102.199 307.583 103.896C307.141 102.397 307.235 100.791 307.849 99.354C308.061 98.8639 308.338 98.3372 308.187 97.8252C308.038 97.4593 307.778 97.1489 307.445 96.9371C306.721 96.3778 305.966 95.862 305.181 95.3926C304.633 95.0647 303.506 94.1917 302.877 94.2867C302.844 95.1366 302.827 95.8964 302.455 96.6907C302.366 96.8791 300.979 98.6384 300.914 98.4902Z" fill="#FBBEBE"/>
<path d="M308.402 100.373C311.717 100.373 314.404 97.6856 314.404 94.3709C314.404 91.0561 311.717 88.369 308.402 88.369C305.087 88.369 302.4 91.0561 302.4 94.3709C302.4 97.6856 305.087 100.373 308.402 100.373Z" fill="#FBBEBE"/>
<path d="M308.695 108.57C308.695 108.57 309.719 103.447 306.792 101.69C303.864 99.9335 300.497 97.8841 300.497 97.8841C300.497 97.8841 299.473 97.7377 299.033 99.9335C299.033 99.9335 290.69 101.544 289.811 109.449C288.933 117.353 290.397 128.918 290.397 128.918C290.397 128.918 289.079 139.019 287.469 144.435C287.469 144.435 286.152 145.606 292.007 143.849C297.862 142.093 308.109 148.827 308.109 148.827C308.109 148.827 309.134 147.802 309.134 147.07C309.134 146.338 310.305 142.093 310.305 142.093C310.305 142.093 311.33 124.087 311.769 122.038C312.208 119.988 310.012 108.863 308.695 108.57Z" fill="#3F3D56"/>
<path d="M306.987 94.9891C307.348 94.7893 307.752 94.6816 308.165 94.6756C308.577 94.6694 308.98 94.5494 309.329 94.3287C309.896 93.8934 309.937 93.0523 310.352 92.4702C310.953 91.6274 312.15 91.526 313.184 91.5681C313.817 91.5939 314.498 91.6317 315.03 91.2896C315.577 90.9385 315.825 90.2769 316.009 89.6539C316.227 88.9171 316.368 88.016 315.828 87.4696C315.453 87.0901 314.861 87.0151 314.444 86.6818C314.012 86.3363 313.834 85.7739 313.599 85.273C313.332 84.6627 312.909 84.1332 312.373 83.7374C311.587 83.1913 310.583 83.0688 309.626 83.079C308.669 83.0893 307.708 83.2151 306.758 83.0977C305.98 83.0014 305.204 82.7425 304.428 82.8573C303.44 83.0035 302.622 83.7493 302.135 84.6219C301.647 85.4945 301.438 86.4904 301.236 87.469L300.685 90.1304C300.514 90.9559 300.342 91.8033 300.474 92.6359C300.748 94.3618 302.274 95.7337 302.379 97.478C302.479 96.9964 302.698 96.5471 303.014 96.1706C303.331 95.794 303.736 95.502 304.193 95.3206C304.308 95.2645 304.438 95.2487 304.563 95.2758C304.715 95.3242 304.803 95.4757 304.899 95.603C305.15 95.9363 305.937 96.4421 306.384 96.2056C306.783 95.994 306.485 95.3298 306.987 94.9891Z" fill="#3F3D56"/>
<path d="M291.861 122.331C291.861 122.331 290.836 128.772 295.081 128.186C295.081 128.186 297.277 127.893 297.57 128.186C297.862 128.479 308.695 126.576 310.159 124.965C310.159 124.965 311.915 124.38 312.793 125.258C313.672 126.137 322.455 127.015 319.82 124.38C317.185 121.745 313.086 121.159 313.086 121.159L307.524 121.452C307.524 121.452 304.596 122.331 302.839 121.452C301.083 120.574 296.106 120.867 296.106 120.867L291.861 122.331Z" fill="#FBBEBE"/>
<path d="M297.862 101.983C297.862 101.983 291.275 102.715 291.275 112.23V124.38C291.275 124.38 294.935 122.77 295.667 122.916C296.399 123.062 299.326 121.013 299.326 121.013C299.326 121.013 302.693 113.108 302.4 110.912C302.108 108.717 302.254 102.276 297.862 101.983Z" fill="#3F3D56"/>
<path d="M308.402 93.5656C311.514 93.5656 314.038 92.2549 314.038 90.6379C314.038 89.021 311.514 87.7102 308.402 87.7102C305.289 87.7102 302.766 89.021 302.766 90.6379C302.766 92.2549 305.289 93.5656 308.402 93.5656Z" fill="#3F3D56"/>
<path d="M303.132 96.0542C304.224 96.0542 305.108 93.8586 305.108 91.1503C305.108 88.4419 304.224 86.2463 303.132 86.2463C302.041 86.2463 301.156 88.4419 301.156 91.1503C301.156 93.8586 302.041 96.0542 303.132 96.0542Z" fill="#3F3D56"/>
</g>
<path d="M46.209 72.5881H62.3936V117H71.8027V72.5881H87.9874V64.6364H46.209V72.5881ZM93.4722 117H102.728V77.7273H93.4722V117ZM98.1257 72.1534C101.066 72.1534 103.469 69.9034 103.469 67.142C103.469 64.3551 101.066 62.1051 98.1257 62.1051C95.1597 62.1051 92.7563 64.3551 92.7563 67.142C92.7563 69.9034 95.1597 72.1534 98.1257 72.1534ZM127.472 117.767C136.625 117.767 142.915 113.293 144.552 106.466L135.91 105.494C134.657 108.818 131.589 110.557 127.6 110.557C121.617 110.557 117.654 106.619 117.577 99.8949H144.935V97.0568C144.935 83.2756 136.651 77.2159 126.986 77.2159C115.736 77.2159 108.398 85.4744 108.398 97.5938C108.398 109.918 115.634 117.767 127.472 117.767ZM117.603 93.6562C117.884 88.6449 121.591 84.4261 127.114 84.4261C132.432 84.4261 136.012 88.3125 136.063 93.6562H117.603ZM150.605 117H159.861V93.9119C159.861 88.9261 163.62 85.3977 168.708 85.3977C170.267 85.3977 172.21 85.679 173.003 85.9347V77.4205C172.159 77.267 170.702 77.1648 169.679 77.1648C165.179 77.1648 161.421 79.7216 159.989 84.2727H159.58V77.7273H150.605V117ZM192.589 117H228.487V109.074H205.68V108.716L214.706 99.5369C224.882 89.7699 227.694 85.0142 227.694 79.108C227.694 70.3381 220.561 63.9205 210.027 63.9205C199.646 63.9205 192.283 70.3636 192.283 80.3097H201.308C201.308 74.9659 204.683 71.6165 209.899 71.6165C214.885 71.6165 218.592 74.6591 218.592 79.5938C218.592 83.9659 215.933 87.0852 210.768 92.3267L192.589 110.148V117Z" fill="black"/>
</g>
<defs>
<clipPath id="clip0">
<rect width="480" height="253" rx="16" fill="white"/>
</clipPath>
<clipPath id="clip1">
<rect width="257" height="192" fill="white" transform="translate(258 18)"/>
</clipPath>
</defs>
</svg>
